<svg width="21" height="20" viewBox="0 0 21 20" fill="none" xmlns="http://www.w3.org/2000/svg">
<g clip-path="url(#clip0_859_9134)">
<path d="M3.25 10C3.25 10.9849 3.44399 11.9602 3.8209 12.8701C4.19781 13.7801 4.75026 14.6069 5.4467 15.3033C6.14314 15.9997 6.96993 16.5522 7.87987 16.9291C8.78982 17.306 9.76509 17.5 10.75 17.5C11.7349 17.5 12.7102 17.306 13.6201 16.9291C14.5301 16.5522 15.3569 15.9997 16.0533 15.3033C16.7497 14.6069 17.3022 13.7801 17.6791 12.8701C18.056 11.9602 18.25 10.9849 18.25 10C18.25 9.01509 18.056 8.03982 17.6791 7.12987C17.3022 6.21993 16.7497 5.39314 16.0533 4.6967C15.3569 4.00026 14.5301 3.44781 13.6201 3.0709C12.7102 2.69399 11.7349 2.5 10.75 2.5C9.76509 2.5 8.78982 2.69399 7.87987 3.0709C6.96993 3.44781 6.14314 4.00026 5.4467 4.6967C4.75026 5.39314 4.19781 6.21993 3.8209 7.12987C3.44399 8.03982 3.25 9.01509 3.25 10Z" stroke="black" stroke-width="2" stroke-linecap="round" stroke-linejoin="round"/>
<path d="M8.25 9.99998L9.91667 11.6666L13.25 8.33331" stroke="black" stroke-width="2" stroke-linecap="round" stroke-linejoin="round"/>
</g>
<defs>
<clipPath id="clip0_859_9134">
<rect width="20" height="20" fill="white" transform="translate(0.75)"/>
</clipPath>
</defs>
</svg>
